<svg width="2642" height="1174" xmlns="http://www.w3.org/2000/svg" xmlns:xlink="http://www.w3.org/1999/xlink" xml:space="preserve" overflow="hidden"><defs><clipPath id="clip0"><rect x="693" y="735" width="2642" height="1174"/></clipPath></defs><g clip-path="url(#clip0)" transform="translate(-693 -735)"><rect x="693" y="735" width="2642" height="1174" fill="#EDEFF3"/><path d="M3041.15 1382.15C3013.86 1325.95 2947.11 1294.4 2852.11 1277.56 2644.2 1240.73 2557.19 1237.77 2551.77 1074.67 2541.21 759.451 1999.09 842.92 1870.04 926.354 1774.8 987.928 1651.9 1113.59 1360.37 1113.2 825.473 1112.46 907.239 1541.22 1242.62 1735.72 1517.1 1894.93 1885.46 1760.52 1931.64 1749.84 2041.32 1724.48 2156.23 1722.58 2272.97 1726.48 2964.54 1749.69 3126.59 1558.27 3041.15 1382.15Z" fill="#FFFFFF" fill-rule="evenodd" fill-opacity="0.4"/><path d="M2650.45 1022.09C2595.4 1024.03 2612.73 1069.81 2646.67 1087.11 2701.32 1114.91 2747.05 1112.43 2753.28 1086.75 2760.48 1057.18 2712.92 1019.95 2650.45 1022.09Z" fill="#FFFFFF" fill-rule="evenodd" fill-opacity="0.4"/><path d="M2658.44 891.056C2623.59 892.289 2634.57 921.365 2656.07 932.362 2690.63 950.025 2719.61 948.452 2723.54 932.134 2728.13 913.353 2698 889.701 2658.44 891.056Z" fill="#FFFFFF" fill-rule="evenodd" fill-opacity="0.4"/><path d="M1460.53 1033.82C1454.79 1058.08 1497.43 1056.68 1517.26 1044.21 1549.13 1024.14 1553.13 1003.91 1531.37 997.713 1506.31 990.584 1467.11 1006.3 1460.53 1033.82Z" fill="#FFFFFF" fill-rule="evenodd" fill-opacity="0.4"/><path d="M1349 931C1349 893.997 1379 864 1416 864L1663 864C1700 864 1730 893.997 1730 931L1730 931C1730 968.003 1700 998 1663 998L1416 998C1379 998 1349 968.003 1349 931Z" fill="#BFCFE5" fill-rule="evenodd" fill-opacity="0.698039"/><path d="M1907 931C1907 893.997 1937 864 1974 864L2221 864C2258 864 2288 893.997 2288 931L2288 931C2288 968.003 2258 998 2221 998L1974 997.999C1937 997.999 1907 968.003 1907 930.999Z" fill="#BFCFE5" fill-rule="evenodd" fill-opacity="0.698039"/><path d="M2307 1193.5C2307 1156.77 2336.77 1127 2373.5 1127L2621.5 1127C2658.23 1127 2688 1156.77 2688 1193.5L2688 1193.5C2688 1230.23 2658.23 1260 2621.5 1260L2373.5 1260C2336.77 1260 2307 1230.23 2307 1193.5Z" fill="#BFCFE5" fill-rule="evenodd" fill-opacity="0.698039"/><path d="M2307 1494C2307 1457 2337 1427 2374 1427L2621 1427C2658 1427 2688 1457 2688 1494L2688 1494C2688 1531 2658 1561 2621 1561L2374 1561C2337 1561 2307 1531 2307 1494Z" fill="#BFCFE5" fill-rule="evenodd" fill-opacity="0.698039"/><path d="M1907 1710.5C1907 1673.77 1936.77 1644 1973.5 1644L2221.5 1644C2258.23 1644 2288 1673.77 2288 1710.5L2288 1710.5C2288 1747.23 2258.23 1777 2221.5 1777L1973.5 1777C1936.77 1777 1907 1747.23 1907 1710.5Z" fill="#BFCFE5" fill-rule="evenodd" fill-opacity="0.698039"/><path d="M1349 1345.5C1349 1308.77 1378.77 1279 1415.5 1279L1663.5 1279C1700.23 1279 1730 1308.77 1730 1345.5L1730 1345.5C1730 1382.23 1700.23 1412 1663.5 1412L1415.5 1412C1378.77 1412 1349 1382.23 1349 1345.5Z" fill="#BFCFE5" fill-rule="evenodd" fill-opacity="0.698039"/><path d="M1763.5 865.042 1816.9 865.042C1823.23 865.042 1828.36 870.172 1828.36 876.5 1828.36 882.829 1823.23 887.959 1816.9 887.959L1763.5 887.958C1757.17 887.958 1752.04 882.828 1752.04 876.5 1752.04 870.172 1757.17 865.042 1763.5 865.042ZM1805.44 819.209 1874.19 876.5 1805.44 933.792Z" fill="#C8CCDA"/><path d="M3.73571e-05-11.4583 53.4027-11.4582C59.731-11.4581 64.861-6.32805 64.861 0.000211464 64.861 6.32847 59.7309 11.4585 53.4026 11.4585L-3.73571e-05 11.4583C-6.3283 11.4583-11.4584 6.32823-11.4583-3.73571e-05-11.4583-6.3283-6.32823-11.4584 3.73571e-05-11.4583ZM41.9445-57.2915 110.694 0.000360892 41.9442 57.2918Z" fill="#C8CCDA" transform="matrix(-1 0 0 1 1874.19 977.5)"/><path d="M2564.96 1289.5 2564.96 1342.9C2564.96 1349.23 2559.83 1354.36 2553.5 1354.36 2547.17 1354.36 2542.04 1349.23 2542.04 1342.9L2542.04 1289.5C2542.04 1283.17 2547.17 1278.04 2553.5 1278.04 2559.83 1278.04 2564.96 1283.17 2564.96 1289.5ZM2610.79 1331.44 2553.5 1400.19 2496.21 1331.44Z" fill="#C8CCDA"/><path d="M3.73571e-05-11.4583 53.4027-11.4582C59.731-11.4581 64.861-6.32805 64.861 0.000211464 64.861 6.32847 59.7309 11.4585 53.4026 11.4585L-3.73571e-05 11.4583C-6.3283 11.4583-11.4584 6.32823-11.4583-3.73571e-05-11.4583-6.3283-6.32823-11.4584 3.73571e-05-11.4583ZM41.9445-57.2915 110.694 0.000360892 41.9442 57.2918Z" fill="#C8CCDA" transform="matrix(-6.12323e-17 -1 -1 6.12323e-17 2451.5 1400.19)"/><path d="M1782.18 1062.03 1795.31 1068.47 1816.49 1080.59 1836.83 1093.21 1856.6 1106.47 1875.78 1120.36 1894.38 1134.84 1912.36 1149.92 1929.73 1165.55 1946.47 1181.74 1962.56 1198.45 1977.99 1215.67 1992.76 1233.39 2006.84 1251.58 2020.22 1270.22 2032.89 1289.3 2044.84 1308.8 2056.05 1328.7 2066.52 1348.98 2076.22 1369.62 2085.15 1390.61 2093.29 1411.92 2100.63 1433.54 2107.15 1455.45 2112.85 1477.62 2117.71 1500.05 2121.72 1522.71 2124.86 1545.58 2127.12 1568.64 2128.49 1591.88 2128.96 1615.28C2129.08 1621.6 2124.05 1626.83 2117.72 1626.96 2111.4 1627.08 2106.17 1622.05 2106.04 1615.72L2105.61 1593.22 2104.31 1570.87 2102.15 1548.69 2099.15 1526.69 2095.31 1504.89 2090.66 1483.32 2085.19 1461.98 2078.93 1440.9 2071.88 1420.09 2064.06 1399.57 2055.48 1379.37 2046.15 1359.48 2036.08 1339.95 2025.29 1320.77 2013.79 1301.98 2001.59 1283.58 1988.71 1265.6 1975.15 1248.05 1960.92 1230.96 1946.05 1214.34 1930.53 1198.21 1914.39 1182.58 1897.64 1167.48 1880.29 1152.92 1862.34 1138.92 1843.82 1125.5 1824.74 1112.68 1805.1 1100.47 1785.21 1089.04 1772.09 1082.61C1766.41 1079.82 1764.06 1072.95 1766.85 1067.27 1769.64 1061.59 1776.5 1059.24 1782.18 1062.03ZM1762.65 1128.92 1725.5 1047.5 1812.28 1025.65Z" fill="#C8CCDA"/><path d="M2319.29 910.045 2328.88 910.285 2338.93 911.024 2348.83 912.251 2358.57 913.954 2368.15 916.121 2377.55 918.739 2386.75 921.796 2395.75 925.281 2404.52 929.18 2413.06 933.481 2429.16 943.096 2444.43 954.296 2458.53 966.861 2471.34 980.696 2482.78 995.703 2492.75 1011.79 2497.28 1020.45 2501.26 1029.11C2501.56 1029.75 2501.79 1030.43 2501.97 1031.12L2505.78 1046.48C2507.3 1052.63 2503.56 1058.84 2497.42 1060.36 2491.27 1061.89 2485.06 1058.15 2483.54 1052L2479.72 1036.64 2480.43 1038.65 2476.94 1031.01 2473.23 1023.8 2464.52 1009.55 2454.49 996.222 2443.23 983.923 2430.83 972.737 2417.38 962.753 2402.73 953.935 2395.19 950.109 2387.44 946.639 2379.5 943.534 2371.37 940.806 2363.07 938.465 2354.6 936.523 2345.98 934.99 2337.21 933.876 2328.31 933.194 2318.71 932.955C2312.39 932.797 2307.39 927.541 2307.55 921.214 2307.7 914.888 2312.96 909.888 2319.29 910.045ZM2548.74 1027.15 2505.5 1105.5 2436.23 1048.84Z" fill="#C8CCDA"/><path d="M2489.95 1582.86 2489.73 1589.91 2489.02 1597.59 2487.85 1605.16 2486.21 1612.6 2484.13 1619.91 2481.61 1627.07 2478.68 1634.06 2475.34 1640.89 2467.68 1653.71 2458.43 1666.02 2447.83 1677.46 2435.99 1687.97 2423.02 1697.48 2409 1705.93 2394.02 1713.27C2393.43 1713.56 2392.8 1713.8 2392.16 1713.98L2367.17 1721.14C2361.09 1722.88 2354.75 1719.36 2353 1713.28 2351.26 1707.19 2354.78 1700.85 2360.86 1699.11L2385.85 1691.95 2383.99 1692.66 2397.22 1686.27 2409.53 1678.95 2420.84 1670.78 2431.08 1661.83 2440.17 1652.17 2448.04 1641.9 2454.78 1630.77 2457.57 1625.15 2460.01 1619.41 2462.11 1613.57 2463.84 1607.62 2465.21 1601.57 2466.21 1595.42 2466.82 1589.19 2467.05 1582.14C2467.25 1575.81 2472.54 1570.85 2478.86 1571.05 2485.19 1571.25 2490.15 1576.54 2489.95 1582.86ZM2384.7 1764.77 2307.5 1719.5 2365.95 1651.73Z" fill="#C8CCDA"/><path d="M1859.75 1739.96 1842.53 1739.57 1825.04 1738.42 1807.79 1736.51 1790.81 1733.86 1774.13 1730.49 1757.76 1726.42 1741.73 1721.67 1726.05 1716.26 1710.76 1710.21 1695.86 1703.53 1681.39 1696.24 1667.36 1688.36 1653.8 1679.91 1640.72 1670.91 1628.16 1661.38 1616.12 1651.32 1604.64 1640.77 1593.73 1629.74 1583.42 1618.25 1573.73 1606.31 1564.67 1593.95 1556.29 1581.18 1548.59 1568.02 1541.6 1554.49 1535.35 1540.61 1529.85 1526.4 1525.13 1511.88 1521.85 1493.75C1520.76 1487.52 1524.93 1481.58 1531.16 1480.49 1537.39 1479.4 1543.33 1483.57 1544.42 1489.81L1546.93 1504.82 1551.23 1518.16 1556.25 1531.22 1561.97 1544 1568.38 1556.47 1575.46 1568.62 1583.18 1580.43 1591.53 1591.88 1600.49 1602.96 1610.04 1613.64 1620.16 1623.91 1630.82 1633.75 1642.02 1643.13 1653.73 1652.05 1665.93 1660.47 1678.6 1668.39 1691.71 1675.78 1705.25 1682.62 1719.21 1688.91 1733.54 1694.61 1748.25 1699.71 1763.3 1704.19 1778.68 1708.03 1794.36 1711.22 1810.33 1713.73 1826.56 1715.55 1843.04 1716.66 1860.25 1717.04C1866.58 1717.18 1871.6 1722.43 1871.46 1728.75 1871.32 1735.08 1866.07 1740.1 1859.75 1739.96ZM1477.88 1510.77 1525.5 1435 1591.44 1495.5Z" fill="#C8CCDA"/></g></svg>