<svg width="3114" height="1479" xmlns="http://www.w3.org/2000/svg" xmlns:xlink="http://www.w3.org/1999/xlink" xml:space="preserve" overflow="hidden"><defs><clipPath id="clip0"><rect x="85" y="260" width="3114" height="1479"/></clipPath></defs><g clip-path="url(#clip0)" transform="translate(-85 -260)"><rect x="84.9999" y="260" width="3114" height="1479" fill="#FFFFFF"/><path d="M401.5 283.5 825.501 283.5 900.5 358.5 825.501 433.5 401.5 433.5Z" stroke="#959595" stroke-width="4.58333" stroke-miterlimit="8" fill="#D9D9D9" fill-rule="evenodd"/><text font-family="Calibri,Calibri_MSFontService,sans-serif" font-weight="400" font-size="50" transform="matrix(1 0 0 1 551.638 345)">Business </text><text font-family="Calibri,Calibri_MSFontService,sans-serif" font-weight="400" font-size="50" transform="matrix(1 0 0 1 487.975 395)">Understanding</text><path d="M801.5 283.5 1225.5 283.5 1300.5 358.5 1225.5 433.5 801.5 433.5 876.5 358.5Z" stroke="#959595" stroke-width="4.58333" stroke-miterlimit="8" fill="#FFFFFF" fill-rule="evenodd"/><text font-family="Calibri,Calibri_MSFontService,sans-serif" font-weight="400" font-size="50" transform="matrix(1 0 0 1 1007.53 345)">Data </text><text font-family="Calibri,Calibri_MSFontService,sans-serif" font-weight="400" font-size="50" transform="matrix(1 0 0 1 903.877 395)">Understanding</text><path d="M1200.5 283.5 1625.5 283.5 1700.5 358.5 1625.5 433.5 1200.5 433.5 1275.5 358.5Z" stroke="#959595" stroke-width="4.58333" stroke-miterlimit="8" fill="#FFFFFF" fill-rule="evenodd"/><text font-family="Calibri,Calibri_MSFontService,sans-serif" font-weight="400" font-size="50" transform="matrix(1 0 0 1 1407.29 345)">Data </text><text font-family="Calibri,Calibri_MSFontService,sans-serif" font-weight="400" font-size="50" transform="matrix(1 0 0 1 1334.09 395)">Preparation</text><path d="M1600.5 283.5 2025.5 283.5 2100.5 358.5 2025.5 433.5 1600.5 433.5 1675.5 358.5Z" stroke="#959595" stroke-width="4.58333" stroke-miterlimit="8" fill="#FFFFFF" fill-rule="evenodd"/><text font-family="Calibri,Calibri_MSFontService,sans-serif" font-weight="400" font-size="50" transform="matrix(1 0 0 1 1757.85 371)">Modeling</text><path d="M2000.5 283.5 2424.5 283.5 2499.5 358.5 2424.5 433.5 2000.5 433.5 2075.5 358.5Z" stroke="#959595" stroke-width="4.58333" stroke-miterlimit="8" fill="#FFFFFF" fill-rule="evenodd"/><text font-family="Calibri,Calibri_MSFontService,sans-serif" font-weight="400" font-size="50" transform="matrix(1 0 0 1 2147.28 371)">Evaluation</text><path d="M2400.5 283.5 2824.5 283.5 2899.5 358.5 2824.5 433.5 2400.5 433.5 2475.5 358.5Z" stroke="#959595" stroke-width="4.58333" stroke-miterlimit="8" fill="#FFFFFF" fill-rule="evenodd"/><text font-family="Calibri,Calibri_MSFontService,sans-serif" font-weight="400" font-size="50" transform="matrix(1 0 0 1 2528.53 371)">Deployment</text><rect x="114.5" y="543.5" width="309" height="228" stroke="#7F7F7F" stroke-width="4.58333" stroke-miterlimit="8" fill="#D9D9D9"/><text font-family="Calibri,Calibri_MSFontService,sans-serif" font-weight="400" font-size="50" transform="matrix(1 0 0 1 159.088 613)">Determine</text><text font-family="Calibri,Calibri_MSFontService,sans-serif" font-weight="400" font-size="50" transform="matrix(1 0 0 1 180.859 673)">Business</text><text font-family="Calibri,Calibri_MSFontService,sans-serif" font-weight="400" font-size="50" transform="matrix(1 0 0 1 161.677 732)">Objectives</text><path d="M463 555 781 555 781 718.597C622 718.597 622 780.93 463 745.513Z" fill="#F2F2F2" fill-rule="evenodd"/><text font-family="Calibri,Calibri_MSFontService,sans-serif" font-weight="400" font-size="46" transform="matrix(1 0 0 1 511.762 673)">Background</text><path d="M815 555 1134 555 1134 718.597C974.5 718.597 974.5 780.93 815 745.513Z" fill="#F2F2F2" fill-rule="evenodd"/><text font-family="Calibri,Calibri_MSFontService,sans-serif" font-weight="400" font-size="46" transform="matrix(1 0 0 1 894.574 644)">Business </text><text font-family="Calibri,Calibri_MSFontService,sans-serif" font-weight="400" font-size="46" transform="matrix(1 0 0 1 877.089 703)">Objectives</text><path d="M1167 555 1486 555 1486 718.597C1326.5 718.597 1326.5 780.93 1167 745.513Z" fill="#F2F2F2" fill-rule="evenodd"/><text font-family="Calibri,Calibri_MSFontService,sans-serif" font-weight="400" font-size="46" transform="matrix(1 0 0 1 1246.71 614)">Business</text><text font-family="Calibri,Calibri_MSFontService,sans-serif" font-weight="400" font-size="46" transform="matrix(1 0 0 1 1255.31 673)">Success</text><text font-family="Calibri,Calibri_MSFontService,sans-serif" font-weight="400" font-size="46" transform="matrix(1 0 0 1 1257.87 733)">Criteria</text><rect x="114.5" y="805.5" width="309" height="228" stroke="#7F7F7F" stroke-width="4.58333" stroke-miterlimit="8" fill="#D9D9D9"/><text font-family="Calibri,Calibri_MSFontService,sans-serif" font-weight="400" font-size="50" transform="matrix(1 0 0 1 202.355 906)">Assess</text><text font-family="Calibri,Calibri_MSFontService,sans-serif" font-weight="400" font-size="50" transform="matrix(1 0 0 1 177.421 966)">Situation</text><path d="M463 817 781 817 781 980.597C622 980.597 622 1042.93 463 1007.51Z" fill="#F2F2F2" fill-rule="evenodd"/><text font-family="Calibri,Calibri_MSFontService,sans-serif" font-weight="400" font-size="46" transform="matrix(1 0 0 1 532.674 906)">Inventory</text><text font-family="Calibri,Calibri_MSFontService,sans-serif" font-weight="400" font-size="46" transform="matrix(1 0 0 1 503.455 965)">of Resources</text><path d="M815 817 1134 817 1134 980.597C974.5 980.597 974.5 1042.93 815 1007.51Z" fill="#F2F2F2" fill-rule="evenodd"/><text font-family="Calibri,Calibri_MSFontService,sans-serif" font-weight="400" font-size="46" transform="matrix(1 0 0 1 837.844 876)">Requirements, </text><text font-family="Calibri,Calibri_MSFontService,sans-serif" font-weight="400" font-size="46" transform="matrix(1 0 0 1 834.406 935)">Assumptions &amp; </text><text font-family="Calibri,Calibri_MSFontService,sans-serif" font-weight="400" font-size="46" transform="matrix(1 0 0 1 868.781 995)">Constraints</text><path d="M1167 817 1486 817 1486 980.597C1326.5 980.597 1326.5 1042.93 1167 1007.51Z" fill="#F2F2F2" fill-rule="evenodd"/><text font-family="Calibri,Calibri_MSFontService,sans-serif" font-weight="400" font-size="46" transform="matrix(1 0 0 1 1240.98 906)">Risks and </text><text font-family="Calibri,Calibri_MSFontService,sans-serif" font-weight="400" font-size="46" transform="matrix(1 0 0 1 1195.72 965)">Contingencies</text><path d="M1520 817 1838 817 1838 980.597C1679 980.597 1679 1042.93 1520 1007.51Z" fill="#F2F2F2" fill-rule="evenodd"/><text font-family="Calibri,Calibri_MSFontService,sans-serif" font-weight="400" font-size="46" transform="matrix(1 0 0 1 1562.19 936)">Terminology</text><path d="M1872 817 2190 817 2190 980.597C2031 980.597 2031 1042.93 1872 1007.51Z" fill="#F2F2F2" fill-rule="evenodd"/><text font-family="Calibri,Calibri_MSFontService,sans-serif" font-weight="400" font-size="46" transform="matrix(1 0 0 1 1940.98 906)">Costs and </text><text font-family="Calibri,Calibri_MSFontService,sans-serif" font-weight="400" font-size="46" transform="matrix(1 0 0 1 1954.73 965)">Benefits</text><rect x="114.5" y="1067.5" width="309" height="228" stroke="#7F7F7F" stroke-width="4.58333" stroke-miterlimit="8" fill="#D9D9D9"/><text font-family="Calibri,Calibri_MSFontService,sans-serif" font-weight="400" font-size="50" transform="matrix(1 0 0 1 158.898 1138)">Determine</text><text font-family="Calibri,Calibri_MSFontService,sans-serif" font-weight="400" font-size="50" transform="matrix(1 0 0 1 143.704 1198)">Data Mining</text><text font-family="Calibri,Calibri_MSFontService,sans-serif" font-weight="400" font-size="50" transform="matrix(1 0 0 1 211.606 1257)">Goals</text><path d="M463 1080 781 1080 781 1242.79C622 1242.79 622 1304.82 463 1269.58Z" fill="#F2F2F2" fill-rule="evenodd"/><text font-family="Calibri,Calibri_MSFontService,sans-serif" font-weight="400" font-size="46" transform="matrix(1 0 0 1 508.898 1168)">Data Mining</text><text font-family="Calibri,Calibri_MSFontService,sans-serif" font-weight="400" font-size="46" transform="matrix(1 0 0 1 571.07 1227)">Goals</text><path d="M815 1080 1134 1080 1134 1242.79C974.5 1242.79 974.5 1304.82 815 1269.58Z" fill="#F2F2F2" fill-rule="evenodd"/><text font-family="Calibri,Calibri_MSFontService,sans-serif" font-weight="400" font-size="46" transform="matrix(1 0 0 1 861.035 1168)">Data Mining </text><text font-family="Calibri,Calibri_MSFontService,sans-serif" font-weight="400" font-size="46" transform="matrix(1 0 0 1 829.25 1227)">Success Criteria</text><rect x="114.5" y="1330.5" width="309" height="228" stroke="#7F7F7F" stroke-width="4.58333" stroke-miterlimit="8" fill="#D9D9D9"/><text font-family="Calibri,Calibri_MSFontService,sans-serif" font-weight="400" font-size="50" transform="matrix(1 0 0 1 184.01 1400)">Produce</text><text font-family="Calibri,Calibri_MSFontService,sans-serif" font-weight="400" font-size="50" transform="matrix(1 0 0 1 196.041 1460)">Project </text><text font-family="Calibri,Calibri_MSFontService,sans-serif" font-weight="400" font-size="50" transform="matrix(1 0 0 1 224.687 1519)">Plan</text><path d="M463 1342 781 1342 781 1505.6C622 1505.6 622 1567.93 463 1532.51Z" fill="#F2F2F2" fill-rule="evenodd"/><text font-family="Calibri,Calibri_MSFontService,sans-serif" font-weight="400" font-size="46" transform="matrix(1 0 0 1 556.163 1431)">Project </text><text font-family="Calibri,Calibri_MSFontService,sans-serif" font-weight="400" font-size="46" transform="matrix(1 0 0 1 582.517 1490)">Plan</text><path d="M815 1342 1134 1342 1134 1505.6C974.5 1505.6 974.5 1567.93 815 1532.51Z" fill="#F2F2F2" fill-rule="evenodd"/><text font-family="Calibri,Calibri_MSFontService,sans-serif" font-weight="400" font-size="46" transform="matrix(1 0 0 1 807.766 1401)">Initial Assessment </text><text font-family="Calibri,Calibri_MSFontService,sans-serif" font-weight="400" font-size="46" transform="matrix(1 0 0 1 855.318 1460)">of Tools, and </text><text font-family="Calibri,Calibri_MSFontService,sans-serif" font-weight="400" font-size="46" transform="matrix(1 0 0 1 868.495 1520)">Techniques</text><path d="M575 464.5C575 438.819 595.819 418 621.5 418 647.181 418 668 438.819 668 464.5 668 490.181 647.181 511 621.5 511 595.819 511 575 490.181 575 464.5Z" fill="#DAE3F3" fill-rule="evenodd"/><text font-family="Calibri,Calibri_MSFontService,sans-serif" font-weight="400" font-size="83" transform="matrix(1 0 0 1 600.384 491)">1</text></g></svg>