<svg width="3114" height="1479" xmlns="http://www.w3.org/2000/svg" xmlns:xlink="http://www.w3.org/1999/xlink" xml:space="preserve" overflow="hidden"><defs><clipPath id="clip0"><rect x="85" y="260" width="3114" height="1479"/></clipPath></defs><g clip-path="url(#clip0)" transform="translate(-85 -260)"><rect x="84.9999" y="260" width="3114" height="1479" fill="#FFFFFF"/><path d="M401.5 283.5 825.501 283.5 900.5 358.5 825.501 433.5 401.5 433.5Z" stroke="#959595" stroke-width="4.58333" stroke-miterlimit="8" fill="#FFFFFF" fill-rule="evenodd"/><text font-family="Calibri,Calibri_MSFontService,sans-serif" font-weight="400" font-size="50" transform="matrix(1 0 0 1 551.638 345)">Business </text><text font-family="Calibri,Calibri_MSFontService,sans-serif" font-weight="400" font-size="50" transform="matrix(1 0 0 1 487.975 395)">Understanding</text><path d="M801.5 283.5 1225.5 283.5 1300.5 358.5 1225.5 433.5 801.5 433.5 876.5 358.5Z" stroke="#959595" stroke-width="4.58333" stroke-miterlimit="8" fill="#FFFFFF" fill-rule="evenodd"/><text font-family="Calibri,Calibri_MSFontService,sans-serif" font-weight="400" font-size="50" transform="matrix(1 0 0 1 1007.53 345)">Data </text><text font-family="Calibri,Calibri_MSFontService,sans-serif" font-weight="400" font-size="50" transform="matrix(1 0 0 1 903.877 395)">Understanding</text><path d="M1200.5 283.5 1625.5 283.5 1700.5 358.5 1625.5 433.5 1200.5 433.5 1275.5 358.5Z" stroke="#959595" stroke-width="4.58333" stroke-miterlimit="8" fill="#FFFFFF" fill-rule="evenodd"/><text font-family="Calibri,Calibri_MSFontService,sans-serif" font-weight="400" font-size="50" transform="matrix(1 0 0 1 1407.29 345)">Data </text><text font-family="Calibri,Calibri_MSFontService,sans-serif" font-weight="400" font-size="50" transform="matrix(1 0 0 1 1334.09 395)">Preparation</text><path d="M1600.5 283.5 2025.5 283.5 2100.5 358.5 2025.5 433.5 1600.5 433.5 1675.5 358.5Z" stroke="#959595" stroke-width="4.58333" stroke-miterlimit="8" fill="#FFFFFF" fill-rule="evenodd"/><text font-family="Calibri,Calibri_MSFontService,sans-serif" font-weight="400" font-size="50" transform="matrix(1 0 0 1 1757.85 371)">Modeling</text><path d="M2000.5 283.5 2424.5 283.5 2499.5 358.5 2424.5 433.5 2000.5 433.5 2075.5 358.5Z" stroke="#959595" stroke-width="4.58333" stroke-miterlimit="8" fill="#D9D9D9" fill-rule="evenodd"/><text font-family="Calibri,Calibri_MSFontService,sans-serif" font-weight="400" font-size="50" transform="matrix(1 0 0 1 2147.28 371)">Evaluation</text><path d="M2400.5 283.5 2824.5 283.5 2899.5 358.5 2824.5 433.5 2400.5 433.5 2475.5 358.5Z" stroke="#959595" stroke-width="4.58333" stroke-miterlimit="8" fill="#FFFFFF" fill-rule="evenodd"/><text font-family="Calibri,Calibri_MSFontService,sans-serif" font-weight="400" font-size="50" transform="matrix(1 0 0 1 2528.53 371)">Deployment</text><rect x="1723.5" y="543.5" width="309" height="228" stroke="#7F7F7F" stroke-width="4.58333" stroke-miterlimit="8" fill="#D9D9D9"/><text font-family="Calibri,Calibri_MSFontService,sans-serif" font-weight="400" font-size="50" transform="matrix(1 0 0 1 1789.81 643)">Evaluate</text><text font-family="Calibri,Calibri_MSFontService,sans-serif" font-weight="400" font-size="50" transform="matrix(1 0 0 1 1804.43 703)">Results</text><path d="M2072 555 2390 555 2390 718.597C2231 718.597 2231 780.93 2072 745.513Z" fill="#F2F2F2" fill-rule="evenodd"/><text font-family="Calibri,Calibri_MSFontService,sans-serif" font-weight="400" font-size="46" transform="matrix(1 0 0 1 2097.51 614)">Assessment of </text><text font-family="Calibri,Calibri_MSFontService,sans-serif" font-weight="400" font-size="46" transform="matrix(1 0 0 1 2117.84 673)">Data Mining</text><text font-family="Calibri,Calibri_MSFontService,sans-serif" font-weight="400" font-size="46" transform="matrix(1 0 0 1 2164.82 733)">Results</text><path d="M2424 555 2743 555 2743 718.597C2583.5 718.597 2583.5 780.93 2424 745.513Z" fill="#F2F2F2" fill-rule="evenodd"/><text font-family="Calibri,Calibri_MSFontService,sans-serif" font-weight="400" font-size="46" transform="matrix(1 0 0 1 2492.34 644)">Approved</text><text font-family="Calibri,Calibri_MSFontService,sans-serif" font-weight="400" font-size="46" transform="matrix(1 0 0 1 2514.41 703)">Models</text><rect x="1723.5" y="805.5" width="309" height="228" stroke="#7F7F7F" stroke-width="4.58333" stroke-miterlimit="8" fill="#D9D9D9"/><text font-family="Calibri,Calibri_MSFontService,sans-serif" font-weight="400" font-size="50" transform="matrix(1 0 0 1 1803.28 906)">Review</text><text font-family="Calibri,Calibri_MSFontService,sans-serif" font-weight="400" font-size="50" transform="matrix(1 0 0 1 1799.84 966)">Process</text><path d="M2072 817 2390 817 2390 980.597C2231 980.597 2231 1042.93 2072 1007.51Z" fill="#F2F2F2" fill-rule="evenodd"/><text font-family="Calibri,Calibri_MSFontService,sans-serif" font-weight="400" font-size="46" transform="matrix(1 0 0 1 2140.2 906)">Review of</text><text font-family="Calibri,Calibri_MSFontService,sans-serif" font-weight="400" font-size="46" transform="matrix(1 0 0 1 2160.54 965)">Process</text><rect x="1723.5" y="1067.5" width="309" height="228" stroke="#7F7F7F" stroke-width="4.58333" stroke-miterlimit="8" fill="#D9D9D9"/><text font-family="Calibri,Calibri_MSFontService,sans-serif" font-weight="400" font-size="50" transform="matrix(1 0 0 1 1768.04 1168)">Determine</text><text font-family="Calibri,Calibri_MSFontService,sans-serif" font-weight="400" font-size="50" transform="matrix(1 0 0 1 1768.34 1228)">Next Steps</text><path d="M2072 1080 2390 1080 2390 1242.79C2231 1242.79 2231 1304.82 2072 1269.58Z" fill="#F2F2F2" fill-rule="evenodd"/><text font-family="Calibri,Calibri_MSFontService,sans-serif" font-weight="400" font-size="46" transform="matrix(1 0 0 1 2175.7 1138)">List of </text><text font-family="Calibri,Calibri_MSFontService,sans-serif" font-weight="400" font-size="46" transform="matrix(1 0 0 1 2155.95 1197)">Possible</text><text font-family="Calibri,Calibri_MSFontService,sans-serif" font-weight="400" font-size="46" transform="matrix(1 0 0 1 2162.53 1257)">Actions</text><path d="M2424 1080 2743 1080 2743 1242.79C2583.5 1242.79 2583.5 1304.82 2424 1269.58Z" fill="#F2F2F2" fill-rule="evenodd"/><text font-family="Calibri,Calibri_MSFontService,sans-serif" font-weight="400" font-size="46" transform="matrix(1 0 0 1 2496.07 1198)">Decisions</text><path d="M2169 464.5C2169 438.819 2189.82 418 2215.5 418 2241.18 418 2262 438.819 2262 464.5 2262 490.181 2241.18 511 2215.5 511 2189.82 511 2169 490.181 2169 464.5Z" fill="#DAE3F3" fill-rule="evenodd"/><text font-family="Calibri,Calibri_MSFontService,sans-serif" font-weight="400" font-size="83" transform="matrix(1 0 0 1 2194.82 491)">5</text></g></svg>