<svg width="3114" height="1479" xmlns="http://www.w3.org/2000/svg" xmlns:xlink="http://www.w3.org/1999/xlink" xml:space="preserve" overflow="hidden"><defs><clipPath id="clip0"><rect x="85" y="260" width="3114" height="1479"/></clipPath></defs><g clip-path="url(#clip0)" transform="translate(-85 -260)"><rect x="84.9999" y="260" width="3114" height="1479" fill="#FFFFFF"/><path d="M401.5 283.5 825.501 283.5 900.5 358.5 825.501 433.5 401.5 433.5Z" stroke="#959595" stroke-width="4.58333" stroke-miterlimit="8" fill="#FFFFFF" fill-rule="evenodd"/><text font-family="Calibri,Calibri_MSFontService,sans-serif" font-weight="400" font-size="50" transform="matrix(1 0 0 1 551.638 345)">Business </text><text font-family="Calibri,Calibri_MSFontService,sans-serif" font-weight="400" font-size="50" transform="matrix(1 0 0 1 487.975 395)">Understanding</text><path d="M801.5 283.5 1225.5 283.5 1300.5 358.5 1225.5 433.5 801.5 433.5 876.5 358.5Z" stroke="#959595" stroke-width="4.58333" stroke-miterlimit="8" fill="#D9D9D9" fill-rule="evenodd"/><text font-family="Calibri,Calibri_MSFontService,sans-serif" font-weight="400" font-size="50" transform="matrix(1 0 0 1 1007.53 345)">Data </text><text font-family="Calibri,Calibri_MSFontService,sans-serif" font-weight="400" font-size="50" transform="matrix(1 0 0 1 903.877 395)">Understanding</text><path d="M1200.5 283.5 1625.5 283.5 1700.5 358.5 1625.5 433.5 1200.5 433.5 1275.5 358.5Z" stroke="#959595" stroke-width="4.58333" stroke-miterlimit="8" fill="#FFFFFF" fill-rule="evenodd"/><text font-family="Calibri,Calibri_MSFontService,sans-serif" font-weight="400" font-size="50" transform="matrix(1 0 0 1 1407.29 345)">Data </text><text font-family="Calibri,Calibri_MSFontService,sans-serif" font-weight="400" font-size="50" transform="matrix(1 0 0 1 1334.09 395)">Preparation</text><path d="M1600.5 283.5 2025.5 283.5 2100.5 358.5 2025.5 433.5 1600.5 433.5 1675.5 358.5Z" stroke="#959595" stroke-width="4.58333" stroke-miterlimit="8" fill="#FFFFFF" fill-rule="evenodd"/><text font-family="Calibri,Calibri_MSFontService,sans-serif" font-weight="400" font-size="50" transform="matrix(1 0 0 1 1757.85 371)">Modeling</text><path d="M2000.5 283.5 2424.5 283.5 2499.5 358.5 2424.5 433.5 2000.5 433.5 2075.5 358.5Z" stroke="#959595" stroke-width="4.58333" stroke-miterlimit="8" fill="#FFFFFF" fill-rule="evenodd"/><text font-family="Calibri,Calibri_MSFontService,sans-serif" font-weight="400" font-size="50" transform="matrix(1 0 0 1 2147.28 371)">Evaluation</text><path d="M2400.5 283.5 2824.5 283.5 2899.5 358.5 2824.5 433.5 2400.5 433.5 2475.5 358.5Z" stroke="#959595" stroke-width="4.58333" stroke-miterlimit="8" fill="#FFFFFF" fill-rule="evenodd"/><text font-family="Calibri,Calibri_MSFontService,sans-serif" font-weight="400" font-size="50" transform="matrix(1 0 0 1 2528.53 371)">Deployment</text><rect x="542.5" y="543.5" width="309" height="228" stroke="#7F7F7F" stroke-width="4.58333" stroke-miterlimit="8" fill="#D9D9D9"/><text font-family="Calibri,Calibri_MSFontService,sans-serif" font-weight="400" font-size="50" transform="matrix(1 0 0 1 627.032 613)">Collect</text><text font-family="Calibri,Calibri_MSFontService,sans-serif" font-weight="400" font-size="50" transform="matrix(1 0 0 1 639.636 673)">Initial</text><text font-family="Calibri,Calibri_MSFontService,sans-serif" font-weight="400" font-size="50" transform="matrix(1 0 0 1 648.803 732)">Data</text><path d="M891 555 1210 555 1210 718.597C1050.5 718.597 1050.5 780.93 891 745.513Z" fill="#F2F2F2" fill-rule="evenodd"/><text font-family="Calibri,Calibri_MSFontService,sans-serif" font-weight="400" font-size="46" transform="matrix(1 0 0 1 949.915 614)">Initial Data</text><text font-family="Calibri,Calibri_MSFontService,sans-serif" font-weight="400" font-size="46" transform="matrix(1 0 0 1 957.638 673)">Collection </text><text font-family="Calibri,Calibri_MSFontService,sans-serif" font-weight="400" font-size="46" transform="matrix(1 0 0 1 986.856 733)">Report</text><rect x="542.5" y="805.5" width="309" height="228" stroke="#7F7F7F" stroke-width="4.58333" stroke-miterlimit="8" fill="#D9D9D9"/><text font-family="Calibri,Calibri_MSFontService,sans-serif" font-weight="400" font-size="50" transform="matrix(1 0 0 1 607.839 906)">Describe</text><text font-family="Calibri,Calibri_MSFontService,sans-serif" font-weight="400" font-size="50" transform="matrix(1 0 0 1 648.814 966)">Data</text><path d="M891 817 1210 817 1210 980.597C1050.5 980.597 1050.5 1042.93 891 1007.51Z" fill="#F2F2F2" fill-rule="evenodd"/><text font-family="Calibri,Calibri_MSFontService,sans-serif" font-weight="400" font-size="46" transform="matrix(1 0 0 1 1006.91 876)">Data</text><text font-family="Calibri,Calibri_MSFontService,sans-serif" font-weight="400" font-size="46" transform="matrix(1 0 0 1 944.186 935)">Description</text><text font-family="Calibri,Calibri_MSFontService,sans-serif" font-weight="400" font-size="46" transform="matrix(1 0 0 1 986.856 995)">Report</text><rect x="542.5" y="1067.5" width="309" height="228" stroke="#7F7F7F" stroke-width="4.58333" stroke-miterlimit="8" fill="#D9D9D9"/><text font-family="Calibri,Calibri_MSFontService,sans-serif" font-weight="400" font-size="50" transform="matrix(1 0 0 1 619.871 1168)">Explore</text><text font-family="Calibri,Calibri_MSFontService,sans-serif" font-weight="400" font-size="50" transform="matrix(1 0 0 1 648.815 1228)">Data</text><path d="M891 1080 1210 1080 1210 1242.79C1050.5 1242.79 1050.5 1304.82 891 1269.58Z" fill="#F2F2F2" fill-rule="evenodd"/><text font-family="Calibri,Calibri_MSFontService,sans-serif" font-weight="400" font-size="46" transform="matrix(1 0 0 1 1006.91 1138)">Data</text><text font-family="Calibri,Calibri_MSFontService,sans-serif" font-weight="400" font-size="46" transform="matrix(1 0 0 1 944.186 1197)">Exploration</text><text font-family="Calibri,Calibri_MSFontService,sans-serif" font-weight="400" font-size="46" transform="matrix(1 0 0 1 986.856 1257)">Report</text><rect x="542.5" y="1330.5" width="309" height="228" stroke="#7F7F7F" stroke-width="4.58333" stroke-miterlimit="8" fill="#D9D9D9"/><text font-family="Calibri,Calibri_MSFontService,sans-serif" font-weight="400" font-size="50" transform="matrix(1 0 0 1 635.913 1400)">Verify</text><text font-family="Calibri,Calibri_MSFontService,sans-serif" font-weight="400" font-size="50" transform="matrix(1 0 0 1 648.815 1460)">Data</text><text font-family="Calibri,Calibri_MSFontService,sans-serif" font-weight="400" font-size="50" transform="matrix(1 0 0 1 623.308 1519)">Quality</text><path d="M891 1342 1210 1342 1210 1505.6C1050.5 1505.6 1050.5 1567.93 891 1532.51Z" fill="#F2F2F2" fill-rule="evenodd"/><text font-family="Calibri,Calibri_MSFontService,sans-serif" font-weight="400" font-size="46" transform="matrix(1 0 0 1 1006.91 1401)">Data </text><text font-family="Calibri,Calibri_MSFontService,sans-serif" font-weight="400" font-size="46" transform="matrix(1 0 0 1 983.717 1460)">Quality</text><text font-family="Calibri,Calibri_MSFontService,sans-serif" font-weight="400" font-size="46" transform="matrix(1 0 0 1 986.856 1520)">Report</text><path d="M998 464.5C998 438.819 1018.82 418 1044.5 418 1070.18 418 1091 438.819 1091 464.5 1091 490.181 1070.18 511 1044.5 511 1018.82 511 998 490.181 998 464.5Z" fill="#DAE3F3" fill-rule="evenodd"/><text font-family="Calibri,Calibri_MSFontService,sans-serif" font-weight="400" font-size="83" transform="matrix(1 0 0 1 1023.36 491)">2</text></g></svg>