<svg width="3114" height="1479" xmlns="http://www.w3.org/2000/svg" xmlns:xlink="http://www.w3.org/1999/xlink" xml:space="preserve" overflow="hidden"><defs><clipPath id="clip0"><rect x="85" y="260" width="3114" height="1479"/></clipPath></defs><g clip-path="url(#clip0)" transform="translate(-85 -260)"><rect x="84.9999" y="260" width="3114" height="1479" fill="#FFFFFF"/><path d="M401.5 283.5 825.501 283.5 900.5 358.5 825.501 433.5 401.5 433.5Z" stroke="#959595" stroke-width="4.58333" stroke-miterlimit="8" fill="#FFFFFF" fill-rule="evenodd"/><text font-family="Calibri,Calibri_MSFontService,sans-serif" font-weight="400" font-size="50" transform="matrix(1 0 0 1 551.638 345)">Business </text><text font-family="Calibri,Calibri_MSFontService,sans-serif" font-weight="400" font-size="50" transform="matrix(1 0 0 1 487.975 395)">Understanding</text><path d="M801.5 283.5 1225.5 283.5 1300.5 358.5 1225.5 433.5 801.5 433.5 876.5 358.5Z" stroke="#959595" stroke-width="4.58333" stroke-miterlimit="8" fill="#FFFFFF" fill-rule="evenodd"/><text font-family="Calibri,Calibri_MSFontService,sans-serif" font-weight="400" font-size="50" transform="matrix(1 0 0 1 1007.53 345)">Data </text><text font-family="Calibri,Calibri_MSFontService,sans-serif" font-weight="400" font-size="50" transform="matrix(1 0 0 1 903.877 395)">Understanding</text><path d="M1200.5 283.5 1625.5 283.5 1700.5 358.5 1625.5 433.5 1200.5 433.5 1275.5 358.5Z" stroke="#959595" stroke-width="4.58333" stroke-miterlimit="8" fill="#FFFFFF" fill-rule="evenodd"/><text font-family="Calibri,Calibri_MSFontService,sans-serif" font-weight="400" font-size="50" transform="matrix(1 0 0 1 1407.29 345)">Data </text><text font-family="Calibri,Calibri_MSFontService,sans-serif" font-weight="400" font-size="50" transform="matrix(1 0 0 1 1334.09 395)">Preparation</text><path d="M1600.5 283.5 2025.5 283.5 2100.5 358.5 2025.5 433.5 1600.5 433.5 1675.5 358.5Z" stroke="#959595" stroke-width="4.58333" stroke-miterlimit="8" fill="#FFFFFF" fill-rule="evenodd"/><text font-family="Calibri,Calibri_MSFontService,sans-serif" font-weight="400" font-size="50" transform="matrix(1 0 0 1 1757.85 371)">Modeling</text><path d="M2000.5 283.5 2424.5 283.5 2499.5 358.5 2424.5 433.5 2000.5 433.5 2075.5 358.5Z" stroke="#959595" stroke-width="4.58333" stroke-miterlimit="8" fill="#FFFFFF" fill-rule="evenodd"/><text font-family="Calibri,Calibri_MSFontService,sans-serif" font-weight="400" font-size="50" transform="matrix(1 0 0 1 2147.28 371)">Evaluation</text><path d="M2400.5 283.5 2824.5 283.5 2899.5 358.5 2824.5 433.5 2400.5 433.5 2475.5 358.5Z" stroke="#959595" stroke-width="4.58333" stroke-miterlimit="8" fill="#D9D9D9" fill-rule="evenodd"/><text font-family="Calibri,Calibri_MSFontService,sans-serif" font-weight="400" font-size="50" transform="matrix(1 0 0 1 2528.53 371)">Deployment</text><rect x="2151.5" y="543.5" width="309" height="228" stroke="#7F7F7F" stroke-width="4.58333" stroke-miterlimit="8" fill="#D9D9D9"/><text font-family="Calibri,Calibri_MSFontService,sans-serif" font-weight="400" font-size="50" transform="matrix(1 0 0 1 2261.9 643)">Plan</text><text font-family="Calibri,Calibri_MSFontService,sans-serif" font-weight="400" font-size="50" transform="matrix(1 0 0 1 2179.98 703)">Deployment</text><path d="M2500 555 2819 555 2819 718.597C2659.5 718.597 2659.5 780.93 2500 745.513Z" fill="#F2F2F2" fill-rule="evenodd"/><text font-family="Calibri,Calibri_MSFontService,sans-serif" font-weight="400" font-size="46" transform="matrix(1 0 0 1 2544.97 644)">Deployment</text><text font-family="Calibri,Calibri_MSFontService,sans-serif" font-weight="400" font-size="46" transform="matrix(1 0 0 1 2619.74 703)">Plan</text><rect x="2151.5" y="805.5" width="309" height="228" stroke="#7F7F7F" stroke-width="4.58333" stroke-miterlimit="8" fill="#D9D9D9"/><text font-family="Calibri,Calibri_MSFontService,sans-serif" font-weight="400" font-size="50" transform="matrix(1 0 0 1 2261.91 876)">Plan</text><text font-family="Calibri,Calibri_MSFontService,sans-serif" font-weight="400" font-size="50" transform="matrix(1 0 0 1 2168.23 936)">Monitoring &amp;</text><text font-family="Calibri,Calibri_MSFontService,sans-serif" font-weight="400" font-size="50" transform="matrix(1 0 0 1 2170.82 995)">Maintenance</text><path d="M2500 817 2819 817 2819 980.597C2659.5 980.597 2659.5 1042.93 2500 1007.51Z" fill="#F2F2F2" fill-rule="evenodd"/><text font-family="Calibri,Calibri_MSFontService,sans-serif" font-weight="400" font-size="46" transform="matrix(1 0 0 1 2534.08 876)">Monitoring &amp;</text><text font-family="Calibri,Calibri_MSFontService,sans-serif" font-weight="400" font-size="46" transform="matrix(1 0 0 1 2536.67 935)">Maintenance</text><text font-family="Calibri,Calibri_MSFontService,sans-serif" font-weight="400" font-size="46" transform="matrix(1 0 0 1 2619.74 995)">Plan</text><rect x="2151.5" y="1067.5" width="309" height="228" stroke="#7F7F7F" stroke-width="4.58333" stroke-miterlimit="8" fill="#D9D9D9"/><text font-family="Calibri,Calibri_MSFontService,sans-serif" font-weight="400" font-size="50" transform="matrix(1 0 0 1 2221.23 1138)">Produce</text><text font-family="Calibri,Calibri_MSFontService,sans-serif" font-weight="400" font-size="50" transform="matrix(1 0 0 1 2257.59 1198)">Final</text><text font-family="Calibri,Calibri_MSFontService,sans-serif" font-weight="400" font-size="50" transform="matrix(1 0 0 1 2235.82 1257)">Report</text><path d="M2500 1080 2819 1080 2819 1242.79C2659.5 1242.79 2659.5 1304.82 2500 1269.58Z" fill="#F2F2F2" fill-rule="evenodd"/><text font-family="Calibri,Calibri_MSFontService,sans-serif" font-weight="400" font-size="46" transform="matrix(1 0 0 1 2615.73 1168)">Final</text><text font-family="Calibri,Calibri_MSFontService,sans-serif" font-weight="400" font-size="46" transform="matrix(1 0 0 1 2595.96 1227)">Report</text><path d="M2853 1080 3171 1080 3171 1242.79C3012 1242.79 3012 1304.82 2853 1269.58Z" fill="#F2F2F2" fill-rule="evenodd"/><text font-family="Calibri,Calibri_MSFontService,sans-serif" font-weight="400" font-size="46" transform="matrix(1 0 0 1 2967.86 1168)">Final</text><text font-family="Calibri,Calibri_MSFontService,sans-serif" font-weight="400" font-size="46" transform="matrix(1 0 0 1 2892.53 1227)">Presentation</text><rect x="2151.5" y="1330.5" width="309" height="228" stroke="#7F7F7F" stroke-width="4.58333" stroke-miterlimit="8" fill="#D9D9D9"/><text font-family="Calibri,Calibri_MSFontService,sans-serif" font-weight="400" font-size="50" transform="matrix(1 0 0 1 2231.54 1430)">Review</text><text font-family="Calibri,Calibri_MSFontService,sans-serif" font-weight="400" font-size="50" transform="matrix(1 0 0 1 2233.26 1490)">Project</text><path d="M2500 1342 2819 1342 2819 1505.6C2659.5 1505.6 2659.5 1567.93 2500 1532.51Z" fill="#F2F2F2" fill-rule="evenodd"/><text font-family="Calibri,Calibri_MSFontService,sans-serif" font-weight="400" font-size="46" transform="matrix(1 0 0 1 2556.99 1431)">Experience</text><text font-family="Calibri,Calibri_MSFontService,sans-serif" font-weight="400" font-size="46" transform="matrix(1 0 0 1 2514.32 1490)">Documentation</text><path d="M2607 464.5C2607 438.819 2627.82 418 2653.5 418 2679.18 418 2700 438.819 2700 464.5 2700 490.181 2679.18 511 2653.5 511 2627.82 511 2607 490.181 2607 464.5Z" fill="#DAE3F3" fill-rule="evenodd"/><text font-family="Calibri,Calibri_MSFontService,sans-serif" font-weight="400" font-size="83" transform="matrix(1 0 0 1 2632.77 491)">6</text></g></svg>