<svg width="1397" height="969" xmlns="http://www.w3.org/2000/svg" xmlns:xlink="http://www.w3.org/1999/xlink" xml:space="preserve" overflow="hidden"><g transform="translate(-743 -668)"><path d="M786 736.5C786 724.074 796.074 714 808.501 714L1148.5 714C1160.93 714 1171 724.074 1171 736.5L1171 826.5C1171 838.926 1160.93 849 1148.5 849L808.501 849C796.074 849 786 838.926 786 826.5Z" fill="#4472C4" fill-rule="evenodd" fill-opacity="0.2"/><text font-family="Calibri,Calibri_MSFontService,sans-serif" font-weight="400" font-size="46" transform="matrix(1 0 0 1 898.292 769)">Business</text><text font-family="Calibri,Calibri_MSFontService,sans-serif" font-weight="400" font-size="46" transform="matrix(1 0 0 1 840.428 824)">Understanding</text><path d="M752 726.5C752 700.819 772.819 680 798.5 680 824.181 680 845 700.819 845 726.5 845 752.181 824.181 773 798.5 773 772.819 773 752 752.181 752 726.5Z" fill="#D0CECE" fill-rule="evenodd"/><text font-family="Calibri,Calibri_MSFontService,sans-serif" font-weight="400" font-size="64" transform="matrix(1 0 0 1 781.798 747)">1</text><path d="M1350 736.5C1350 724.074 1360.07 714 1372.5 714L1712.5 714C1724.93 714 1735 724.074 1735 736.5L1735 826.5C1735 838.926 1724.93 849 1712.5 849L1372.5 849C1360.07 849 1350 838.926 1350 826.5Z" fill="#4472C4" fill-rule="evenodd" fill-opacity="0.2"/><text font-family="Calibri,Calibri_MSFontService,sans-serif" font-weight="400" font-size="46" transform="matrix(1 0 0 1 1499.07 769)">Data</text><text font-family="Calibri,Calibri_MSFontService,sans-serif" font-weight="400" font-size="46" transform="matrix(1 0 0 1 1404.83 824)">Understanding</text><path d="M1316 726.5C1316 700.819 1336.82 680 1362.5 680 1388.18 680 1409 700.819 1409 726.5 1409 752.181 1388.18 773 1362.5 773 1336.82 773 1316 752.181 1316 726.5Z" fill="#D0CECE" fill-rule="evenodd"/><text font-family="Calibri,Calibri_MSFontService,sans-serif" font-weight="400" font-size="64" transform="matrix(1 0 0 1 1346.2 747)">2</text><path d="M1755 1002.33C1755 989.999 1765 980 1777.33 980L2117.67 980C2130 980 2140 989.999 2140 1002.33L2140 1091.67C2140 1104 2130 1114 2117.67 1114L1777.33 1114C1765 1114 1755 1104 1755 1091.67Z" fill="#4472C4" fill-rule="evenodd" fill-opacity="0.2"/><text font-family="Calibri,Calibri_MSFontService,sans-serif" font-weight="400" font-size="46" transform="matrix(1 0 0 1 1903.72 1035)">Data</text><text font-family="Calibri,Calibri_MSFontService,sans-serif" font-weight="400" font-size="46" transform="matrix(1 0 0 1 1837.26 1090)">Preparation</text><path d="M1721 992.5C1721 966.819 1741.82 946 1767.5 946 1793.18 946 1814 966.819 1814 992.5 1814 1018.18 1793.18 1039 1767.5 1039 1741.82 1039 1721 1018.18 1721 992.5Z" fill="#D0CECE" fill-rule="evenodd"/><text font-family="Calibri,Calibri_MSFontService,sans-serif" font-weight="400" font-size="64" transform="matrix(1 0 0 1 1750.85 1013)">3</text><path d="M1755 1305.5C1755 1293.07 1765.07 1283 1777.5 1283L2117.5 1283C2129.93 1283 2140 1293.07 2140 1305.5L2140 1395.5C2140 1407.93 2129.93 1418 2117.5 1418L1777.5 1418C1765.07 1418 1755 1407.93 1755 1395.5Z" fill="#4472C4" fill-rule="evenodd" fill-opacity="0.2"/><text font-family="Calibri,Calibri_MSFontService,sans-serif" font-weight="400" font-size="46" transform="matrix(1 0 0 1 1859.03 1366)">Modeling</text><path d="M1721 1295.5C1721 1269.82 1741.82 1249 1767.5 1249 1793.18 1249 1814 1269.82 1814 1295.5 1814 1321.18 1793.18 1342 1767.5 1342 1741.82 1342 1721 1321.18 1721 1295.5Z" fill="#D0CECE" fill-rule="evenodd"/><text font-family="Calibri,Calibri_MSFontService,sans-serif" font-weight="400" font-size="64" transform="matrix(1 0 0 1 1750.85 1317)">4</text><path d="M1350 1524.5C1350 1512.07 1360.07 1502 1372.5 1502L1712.5 1502C1724.93 1502 1735 1512.07 1735 1524.5L1735 1614.5C1735 1626.93 1724.93 1637 1712.5 1637L1372.5 1637C1360.07 1637 1350 1626.93 1350 1614.5Z" fill="#4472C4" fill-rule="evenodd" fill-opacity="0.2"/><text font-family="Calibri,Calibri_MSFontService,sans-serif" font-weight="400" font-size="46" transform="matrix(1 0 0 1 1445.22 1585)">Evaluation</text><path d="M1316 1514.5C1316 1488.82 1336.82 1468 1362.5 1468 1388.18 1468 1409 1488.82 1409 1514.5 1409 1540.18 1388.18 1561 1362.5 1561 1336.82 1561 1316 1540.18 1316 1514.5Z" fill="#D0CECE" fill-rule="evenodd"/><text font-family="Calibri,Calibri_MSFontService,sans-serif" font-weight="400" font-size="64" transform="matrix(1 0 0 1 1346.2 1536)">5</text><path d="M786 1155.5C786 1143.07 796.074 1133 808.501 1133L1148.5 1133C1160.93 1133 1171 1143.07 1171 1155.5L1171 1245.5C1171 1257.93 1160.93 1268 1148.5 1268L808.501 1268C796.074 1268 786 1257.93 786 1245.5Z" fill="#4472C4" fill-rule="evenodd" fill-opacity="0.2"/><text font-family="Calibri,Calibri_MSFontService,sans-serif" font-weight="400" font-size="46" transform="matrix(1 0 0 1 863.631 1216)">Deployment</text><path d="M752 1145.5C752 1119.82 772.819 1099 798.5 1099 824.181 1099 845 1119.82 845 1145.5 845 1171.18 824.181 1192 798.5 1192 772.819 1192 752 1171.18 752 1145.5Z" fill="#D0CECE" fill-rule="evenodd"/><text font-family="Calibri,Calibri_MSFontService,sans-serif" font-weight="400" font-size="64" transform="matrix(1 0 0 1 781.798 1167)">6</text><path d="M1204.5 755.063 1293.58 755.063C1295.48 755.063 1297.02 756.602 1297.02 758.5 1297.02 760.399 1295.48 761.938 1293.58 761.938L1204.5 761.938C1202.6 761.938 1201.06 760.399 1201.06 758.5 1201.06 756.602 1202.6 755.063 1204.5 755.063ZM1289 735.584 1316.5 758.501 1289 781.417Z"/><path d="M1.10768e-05-3.4375 89.0805-3.43721C90.979-3.43721 92.518-1.89818 92.518 0.000298124 92.518 1.89878 90.979 3.43779 89.0805 3.43779L-1.10768e-05 3.4375C-1.89849 3.43749-3.43751 1.89847-3.4375-1.10768e-05-3.43749-1.89849-1.89847-3.43751 1.10768e-05-3.4375ZM84.4973-22.9164 111.997 0.000360892 84.4971 22.9169Z" transform="matrix(-1 0 0 1 1316.5 805.5)"/><path d="M1974.94 1143.5 1974.94 1232.58C1974.94 1234.48 1973.4 1236.02 1971.5 1236.02 1969.6 1236.02 1968.06 1234.48 1968.06 1232.58L1968.06 1143.5C1968.06 1141.6 1969.6 1140.06 1971.5 1140.06 1973.4 1140.06 1974.94 1141.6 1974.94 1143.5ZM1994.42 1228 1971.5 1255.5 1948.58 1228Z"/><path d="M1.10768e-05-3.4375 89.0805-3.43721C90.979-3.43721 92.518-1.89818 92.518 0.000298124 92.518 1.89878 90.979 3.43779 89.0805 3.43779L-1.10768e-05 3.4375C-1.89849 3.43749-3.43751 1.89847-3.4375-1.10768e-05-3.43749-1.89849-1.89847-3.43751 1.10768e-05-3.4375ZM84.4973-22.9164 111.997 0.000360892 84.4971 22.9169Z" transform="matrix(-6.12323e-17 -1 -1 6.12323e-17 1924.5 1255.5)"/><path d="M1188.91 904.727 1212.12 915.795 1233.53 927.102 1254.38 939.077 1274.67 951.708 1294.4 964.978 1313.55 978.869 1332.1 993.36 1350.05 1008.44 1367.37 1024.07 1384.07 1040.26 1400.12 1056.97 1415.51 1074.19 1430.23 1091.91 1444.27 1110.09 1457.61 1128.73 1470.25 1147.8 1482.16 1167.29 1493.34 1187.17 1503.76 1207.44 1513.43 1228.07 1522.33 1249.03 1530.44 1270.33 1537.75 1291.92 1544.25 1313.8 1549.92 1335.95 1554.76 1358.35 1558.75 1380.98 1561.87 1403.83 1564.12 1426.86 1565.48 1450.07 1565.94 1473.43C1565.97 1475.33 1564.46 1476.9 1562.57 1476.94 1560.67 1476.97 1559.1 1475.47 1559.06 1473.57L1558.62 1450.47 1557.28 1427.53 1555.06 1404.76 1551.98 1382.18 1548.04 1359.8 1543.26 1337.66 1537.66 1315.76 1531.24 1294.13 1524.01 1272.77 1516 1251.72 1507.21 1230.98 1497.65 1210.59 1487.34 1190.54 1476.29 1170.87 1464.51 1151.6 1452.02 1132.73 1438.83 1114.29 1424.94 1096.3 1410.38 1078.78 1395.16 1061.73 1379.28 1045.2 1362.77 1029.18 1345.62 1013.7 1327.87 998.778 1309.51 984.433 1290.56 970.682 1271.04 957.545 1250.95 945.038 1230.32 933.181 1209.16 922.001 1185.95 910.932C1184.24 910.115 1183.51 908.063 1184.33 906.35 1185.15 904.636 1187.2 903.91 1188.91 904.727ZM1182.29 930.627 1166.5 898.5 1200.95 888.764Z"/><path d="M1767.09 769.063 1776.79 769.305 1786.53 770.03 1796.13 771.226 1805.58 772.883 1814.87 774.988 1823.98 777.529 1832.9 780.495 1841.62 783.873 1850.12 787.652 1858.4 791.819 1874.16 801.23 1888.94 812.091 1902.58 824.269 1914.98 837.673 1926.04 852.205 1931.09 859.935 1935.72 867.846 1939.96 875.991 1943.81 884.36 1947.25 892.94 1950.28 901.72 1952.87 910.688 1955.02 919.831 1956.71 929.137 1957.2 934.862C1957.36 936.754 1955.96 938.416 1954.07 938.574 1952.17 938.732 1950.51 937.326 1950.35 935.434L1949.95 930.364 1948.32 921.4 1946.26 912.594 1943.77 903.956 1940.87 895.497 1937.56 887.23 1933.86 879.165 1929.78 871.314 1925.33 863.688 1920.57 856.365 1909.93 842.337 1898 829.394 1884.87 817.628 1870.63 807.131 1855.3 797.958 1847.33 793.933 1839.13 790.282 1830.73 787.017 1822.13 784.15 1813.35 781.692 1804.39 779.654 1795.28 778.048 1786.02 776.885 1776.61 776.178 1766.91 775.936C1765.02 775.889 1763.52 774.312 1763.56 772.414 1763.61 770.516 1765.19 769.016 1767.09 769.063ZM1976.29 928.857 1955.5 958 1930.58 932.299Z"/><path d="M1931.94 1440.11 1931.71 1447.24 1931.03 1454.49 1929.9 1461.63 1928.33 1468.66 1926.34 1475.57 1923.94 1482.34 1921.14 1488.96 1917.95 1495.43 1910.5 1507.79 1901.6 1519.52 1891.39 1530.45 1879.95 1540.52 1867.38 1549.66 1853.77 1557.8 1839.2 1564.88 1823.77 1570.82 1807.56 1575.57 1790.66 1579.05 1778.21 1580.34C1776.32 1580.53 1774.63 1579.16 1774.44 1577.27 1774.25 1575.38 1775.62 1573.69 1777.51 1573.5L1789.27 1572.32 1805.63 1568.97 1821.3 1564.41 1836.2 1558.69 1850.24 1551.89 1863.34 1544.09 1875.41 1535.35 1886.37 1525.75 1896.13 1515.35 1904.62 1504.24 1911.78 1492.39 1914.81 1486.28 1917.46 1480.03 1919.74 1473.66 1921.62 1467.16 1923.11 1460.55 1924.18 1453.83 1924.84 1447.02 1925.06 1439.89C1925.12 1437.99 1926.71 1436.5 1928.61 1436.56 1930.51 1436.62 1932 1438.21 1931.94 1440.11ZM1784.01 1599.47 1755 1578.5 1780.85 1553.74Z"/><path d="M1302.42 1590.94 1284.98 1590.55 1267.61 1589.4 1250.49 1587.5 1233.65 1584.87 1217.1 1581.53 1200.86 1577.51 1184.96 1572.8 1169.43 1567.45 1154.27 1561.46 1139.51 1554.85 1125.17 1547.65 1111.28 1539.86 1097.86 1531.51 1084.92 1522.63 1072.49 1513.21 1060.59 1503.3 1049.24 1492.89 1038.47 1482.02 1028.29 1470.7 1018.73 1458.94 1009.81 1446.78 1001.54 1434.22 993.963 1421.28 987.087 1407.99 980.937 1394.36 975.535 1380.41 970.903 1366.16 967.064 1351.63 964.038 1336.84 961.848 1321.81 961.322 1314.11C961.195 1312.22 962.627 1310.58 964.521 1310.45 966.416 1310.33 968.054 1311.76 968.181 1313.65L968.652 1320.82 970.774 1335.47 973.711 1349.88 977.442 1364.04 981.947 1377.93 987.204 1391.53 993.194 1404.83 999.895 1417.81 1007.29 1430.44 1015.35 1442.71 1024.06 1454.61 1033.4 1466.1 1043.35 1477.18 1053.89 1487.83 1064.99 1498.02 1076.64 1507.73 1088.81 1516.96 1101.49 1525.68 1114.64 1533.86 1128.26 1541.5 1142.32 1548.58 1156.79 1555.07 1171.67 1560.95 1186.92 1566.21 1202.52 1570.83 1218.46 1574.8 1234.71 1578.08 1251.25 1580.67 1268.07 1582.54 1285.13 1583.68 1302.58 1584.06C1304.47 1584.11 1305.98 1585.68 1305.94 1587.58 1305.89 1589.47 1304.32 1590.98 1302.42 1590.94ZM942.119 1319.71 963.5 1291 987.884 1317.21Z"/></g></svg>