<svg width="3114" height="1479" xmlns="http://www.w3.org/2000/svg" xmlns:xlink="http://www.w3.org/1999/xlink" xml:space="preserve" overflow="hidden"><defs><clipPath id="clip0"><rect x="85" y="260" width="3114" height="1479"/></clipPath></defs><g clip-path="url(#clip0)" transform="translate(-85 -260)"><rect x="84.9999" y="260" width="3114" height="1479" fill="#FFFFFF"/><path d="M401.5 283.5 825.501 283.5 900.5 358.5 825.501 433.5 401.5 433.5Z" stroke="#959595" stroke-width="4.58333" stroke-miterlimit="8" fill="#FFFFFF" fill-rule="evenodd"/><text font-family="Calibri,Calibri_MSFontService,sans-serif" font-weight="400" font-size="50" transform="matrix(1 0 0 1 551.638 345)">Business </text><text font-family="Calibri,Calibri_MSFontService,sans-serif" font-weight="400" font-size="50" transform="matrix(1 0 0 1 487.975 395)">Understanding</text><path d="M801.5 283.5 1225.5 283.5 1300.5 358.5 1225.5 433.5 801.5 433.5 876.5 358.5Z" stroke="#959595" stroke-width="4.58333" stroke-miterlimit="8" fill="#FFFFFF" fill-rule="evenodd"/><text font-family="Calibri,Calibri_MSFontService,sans-serif" font-weight="400" font-size="50" transform="matrix(1 0 0 1 1007.53 345)">Data </text><text font-family="Calibri,Calibri_MSFontService,sans-serif" font-weight="400" font-size="50" transform="matrix(1 0 0 1 903.877 395)">Understanding</text><path d="M1200.5 283.5 1625.5 283.5 1700.5 358.5 1625.5 433.5 1200.5 433.5 1275.5 358.5Z" stroke="#959595" stroke-width="4.58333" stroke-miterlimit="8" fill="#D9D9D9" fill-rule="evenodd"/><text font-family="Calibri,Calibri_MSFontService,sans-serif" font-weight="400" font-size="50" transform="matrix(1 0 0 1 1407.29 345)">Data </text><text font-family="Calibri,Calibri_MSFontService,sans-serif" font-weight="400" font-size="50" transform="matrix(1 0 0 1 1334.09 395)">Preparation</text><path d="M1600.5 283.5 2025.5 283.5 2100.5 358.5 2025.5 433.5 1600.5 433.5 1675.5 358.5Z" stroke="#959595" stroke-width="4.58333" stroke-miterlimit="8" fill="#FFFFFF" fill-rule="evenodd"/><text font-family="Calibri,Calibri_MSFontService,sans-serif" font-weight="400" font-size="50" transform="matrix(1 0 0 1 1757.85 371)">Modeling</text><path d="M2000.5 283.5 2424.5 283.5 2499.5 358.5 2424.5 433.5 2000.5 433.5 2075.5 358.5Z" stroke="#959595" stroke-width="4.58333" stroke-miterlimit="8" fill="#FFFFFF" fill-rule="evenodd"/><text font-family="Calibri,Calibri_MSFontService,sans-serif" font-weight="400" font-size="50" transform="matrix(1 0 0 1 2147.28 371)">Evaluation</text><path d="M2400.5 283.5 2824.5 283.5 2899.5 358.5 2824.5 433.5 2400.5 433.5 2475.5 358.5Z" stroke="#959595" stroke-width="4.58333" stroke-miterlimit="8" fill="#FFFFFF" fill-rule="evenodd"/><text font-family="Calibri,Calibri_MSFontService,sans-serif" font-weight="400" font-size="50" transform="matrix(1 0 0 1 2528.53 371)">Deployment</text><path d="M1393 464.5C1393 438.819 1413.82 418 1439.5 418 1465.18 418 1486 438.819 1486 464.5 1486 490.181 1465.18 511 1439.5 511 1413.82 511 1393 490.181 1393 464.5Z" fill="#DAE3F3" fill-rule="evenodd"/><text font-family="Calibri,Calibri_MSFontService,sans-serif" font-weight="400" font-size="83" transform="matrix(1 0 0 1 1418.18 491)">3</text><rect x="952.5" y="543.5" width="309" height="198" stroke="#7F7F7F" stroke-width="4.58333" stroke-miterlimit="8" fill="#D9D9D9"/><text font-family="Calibri,Calibri_MSFontService,sans-serif" font-weight="400" font-size="50" transform="matrix(1 0 0 1 1045.29 628)">Select</text><text font-family="Calibri,Calibri_MSFontService,sans-serif" font-weight="400" font-size="50" transform="matrix(1 0 0 1 1058.76 688)">Data</text><path d="M1301 553 1620 553 1620 695.746C1460.5 695.746 1460.5 750.135 1301 719.232Z" fill="#F2F2F2" fill-rule="evenodd"/><text font-family="Calibri,Calibri_MSFontService,sans-serif" font-weight="400" font-size="46" transform="matrix(1 0 0 1 1340.67 599)">Rationale for </text><text font-family="Calibri,Calibri_MSFontService,sans-serif" font-weight="400" font-size="46" transform="matrix(1 0 0 1 1363.59 658)">Inclusion / </text><text font-family="Calibri,Calibri_MSFontService,sans-serif" font-weight="400" font-size="46" transform="matrix(1 0 0 1 1374.2 718)">Exclusion</text><rect x="952.5" y="785.5" width="309" height="199" stroke="#7F7F7F" stroke-width="4.58333" stroke-miterlimit="8" fill="#D9D9D9"/><text font-family="Calibri,Calibri_MSFontService,sans-serif" font-weight="400" font-size="50" transform="matrix(1 0 0 1 1049.59 871)">Clean</text><text font-family="Calibri,Calibri_MSFontService,sans-serif" font-weight="400" font-size="50" transform="matrix(1 0 0 1 1058.75 931)">Data</text><path d="M1301 796 1620 796 1620 937.944C1460.5 937.944 1460.5 992.028 1301 961.298Z" fill="#F2F2F2" fill-rule="evenodd"/><text font-family="Calibri,Calibri_MSFontService,sans-serif" font-weight="400" font-size="46" transform="matrix(1 0 0 1 1416.86 842)">Data</text><text font-family="Calibri,Calibri_MSFontService,sans-serif" font-weight="400" font-size="46" transform="matrix(1 0 0 1 1380.49 901)">Cleaning</text><text font-family="Calibri,Calibri_MSFontService,sans-serif" font-weight="400" font-size="46" transform="matrix(1 0 0 1 1396.81 961)">Report</text><rect x="952.5" y="1028.5" width="309" height="199" stroke="#7F7F7F" stroke-width="4.58333" stroke-miterlimit="8" fill="#D9D9D9"/><text font-family="Calibri,Calibri_MSFontService,sans-serif" font-weight="400" font-size="50" transform="matrix(1 0 0 1 1007.76 1114)">Construct</text><text font-family="Calibri,Calibri_MSFontService,sans-serif" font-weight="400" font-size="50" transform="matrix(1 0 0 1 1058.75 1174)">Data</text><path d="M1301 1039 1620 1039 1620 1180.94C1460.5 1180.94 1460.5 1235.03 1301 1204.3Z" fill="#F2F2F2" fill-rule="evenodd"/><text font-family="Calibri,Calibri_MSFontService,sans-serif" font-weight="400" font-size="46" transform="matrix(1 0 0 1 1387.95 1114)">Derived</text><text font-family="Calibri,Calibri_MSFontService,sans-serif" font-weight="400" font-size="46" transform="matrix(1 0 0 1 1366.45 1173)">Attributes</text><path d="M1653 1039 1972 1039 1972 1180.94C1812.5 1180.94 1812.5 1235.03 1653 1204.3Z" fill="#F2F2F2" fill-rule="evenodd"/><text font-family="Calibri,Calibri_MSFontService,sans-serif" font-weight="400" font-size="46" transform="matrix(1 0 0 1 1713.16 1114)">Generated</text><text font-family="Calibri,Calibri_MSFontService,sans-serif" font-weight="400" font-size="46" transform="matrix(1 0 0 1 1738.07 1173)">Records</text><rect x="952.5" y="1271.5" width="309" height="198" stroke="#7F7F7F" stroke-width="4.58333" stroke-miterlimit="8" fill="#D9D9D9"/><text font-family="Calibri,Calibri_MSFontService,sans-serif" font-weight="400" font-size="50" transform="matrix(1 0 0 1 1012.63 1356)">Integrate</text><text font-family="Calibri,Calibri_MSFontService,sans-serif" font-weight="400" font-size="50" transform="matrix(1 0 0 1 1058.76 1416)">Data</text><path d="M1301 1281 1620 1281 1620 1423.75C1460.5 1423.75 1460.5 1478.13 1301 1447.23Z" fill="#F2F2F2" fill-rule="evenodd"/><text font-family="Calibri,Calibri_MSFontService,sans-serif" font-weight="400" font-size="46" transform="matrix(1 0 0 1 1387.08 1357)">Merged</text><text font-family="Calibri,Calibri_MSFontService,sans-serif" font-weight="400" font-size="46" transform="matrix(1 0 0 1 1416.87 1416)">Data</text><rect x="952.5" y="1513.5" width="309" height="199" stroke="#7F7F7F" stroke-width="4.58333" stroke-miterlimit="8" fill="#D9D9D9"/><text font-family="Calibri,Calibri_MSFontService,sans-serif" font-weight="400" font-size="50" transform="matrix(1 0 0 1 1032.68 1599)">Format</text><text font-family="Calibri,Calibri_MSFontService,sans-serif" font-weight="400" font-size="50" transform="matrix(1 0 0 1 1058.76 1659)">Data</text><path d="M1301 1524 1620 1524 1620 1665.94C1460.5 1665.94 1460.5 1720.03 1301 1689.3Z" fill="#F2F2F2" fill-rule="evenodd"/><text font-family="Calibri,Calibri_MSFontService,sans-serif" font-weight="400" font-size="46" transform="matrix(1 0 0 1 1341.53 1599)">Reformatted</text><text font-family="Calibri,Calibri_MSFontService,sans-serif" font-weight="400" font-size="46" transform="matrix(1 0 0 1 1416.86 1658)">Data</text><path d="M402 553 720 553 720 695.746C561 695.746 561 750.135 402 719.232Z" fill="#F2F2F2" fill-rule="evenodd"/><text font-family="Calibri,Calibri_MSFontService,sans-serif" font-weight="400" font-size="46" transform="matrix(1 0 0 1 489.043 659)">Dataset</text><path d="M402 796 720 796 720 937.944C561 937.944 561 992.028 402 961.298Z" fill="#F2F2F2" fill-rule="evenodd"/><text font-family="Calibri,Calibri_MSFontService,sans-serif" font-weight="400" font-size="46" transform="matrix(1 0 0 1 489.032 872)">Dataset</text><text font-family="Calibri,Calibri_MSFontService,sans-serif" font-weight="400" font-size="46" transform="matrix(1 0 0 1 454.382 931)">Description</text></g></svg>